<svg width="18" height="32" viewBox="0 0 18 32" fill="none" xmlns="http://www.w3.org/2000/svg">
<path d="M9.32449 0.897587C9.28129 0.553587 8.71649 0.553587 8.67489 0.897587C7.26209 12.2688 0.0380859 14.6128 0.0380859 22.5168C0.0380859 27.4016 4.14049 31.36 8.99969 31.36C13.8589 31.36 17.9597 27.4 17.9597 22.5168C17.9597 14.6128 10.7373 12.2688 9.32449 0.897587ZM7.95969 13.4688C7.86369 13.8187 7.76289 14.1803 7.65729 14.5536C7.01569 16.832 6.28769 19.416 6.28769 22.4032C6.28769 24.0224 5.33089 24.5968 4.43809 24.5968C4.19408 24.596 3.95264 24.547 3.72757 24.4528C3.5025 24.3585 3.29822 24.2208 3.12643 24.0475C2.95464 23.8742 2.8187 23.6688 2.72639 23.4429C2.63408 23.2171 2.58722 22.9752 2.58849 22.7312C2.58849 19.2 4.28769 16.8928 5.78849 14.8592C6.26049 14.2224 6.70369 13.6192 7.06369 13.0192C7.22849 12.744 7.67169 12.7568 7.87329 13.0288C7.96769 13.1568 7.99969 13.32 7.95969 13.4688Z" fill="#DC6803"/>
</svg>
